<?xml version="1.0" encoding="UTF-8" standalone="no"?>
<svg
   xmlns:dc="http://purl.org/dc/elements/1.1/"
   xmlns:cc="http://creativecommons.org/ns#"
   xmlns:rdf="http://www.w3.org/1999/02/22-rdf-syntax-ns#"
   xmlns:svg="http://www.w3.org/2000/svg"
   xmlns="http://www.w3.org/2000/svg"
   xmlns:sodipodi="http://sodipodi.sourceforge.net/DTD/sodipodi-0.dtd"
   xmlns:inkscape="http://www.inkscape.org/namespaces/inkscape"
   width="96"
   height="108"
   viewBox="0 0 96 108"
   fill="none"
   version="1.1"
   id="svg9238"
   sodipodi:docname="atomwhite.svg"
   inkscape:version="0.92.4 (5da689c313, 2019-01-14)">
  <metadata
     id="metadata9244">
    <rdf:RDF>
      <cc:Work
         rdf:about="">
        <dc:format>image/svg+xml</dc:format>
        <dc:type
           rdf:resource="http://purl.org/dc/dcmitype/StillImage" />
        <dc:title></dc:title>
      </cc:Work>
    </rdf:RDF>
  </metadata>
  <defs
     id="defs9242">
    <filter
       style="color-interpolation-filters:sRGB;"
       inkscape:label="Invert"
       id="filter9250">
      <feColorMatrix
         type="hueRotate"
         values="180"
         result="color1"
         id="feColorMatrix9246" />
      <feColorMatrix
         values="-1 0 0 0 1 0 -1 0 0 1 0 0 -1 0 1 -0.21 -0.72 -0.07 2 0 "
         result="fbSourceGraphic"
         id="feColorMatrix9248" />
      <feColorMatrix
         result="fbSourceGraphicAlpha"
         in="fbSourceGraphic"
         values="0 0 0 -1 0 0 0 0 -1 0 0 0 0 -1 0 0 0 0 1 0"
         id="feColorMatrix9278" />
      <feColorMatrix
         id="feColorMatrix9280"
         values="0 0 0 -0.5 0.5 0 0 0 -0.5 0.5 0 0 0 -0.5 0.5 0 0 0 1 0"
         in="fbSourceGraphic"
         result="fbSourceGraphic" />
      <feColorMatrix
         result="fbSourceGraphicAlpha"
         in="fbSourceGraphic"
         values="0 0 0 -1 0 0 0 0 -1 0 0 0 0 -1 0 0 0 0 1 0"
         id="feColorMatrix9305" />
      <feColorMatrix
         id="feColorMatrix9307"
         type="hueRotate"
         values="180"
         result="color1"
         in="fbSourceGraphic" />
      <feColorMatrix
         id="feColorMatrix9309"
         values="-1 0 0 0 1 0 -1 0 0 1 0 0 -1 0 1 -0.21 -0.72 -0.07 2 0 "
         result="color2" />
    </filter>
    <filter
       style="color-interpolation-filters:sRGB;"
       inkscape:label="Invert"
       id="filter9256">
      <feColorMatrix
         type="hueRotate"
         values="180"
         result="color1"
         id="feColorMatrix9252" />
      <feColorMatrix
         values="-1 0 0 0 1 0 -1 0 0 1 0 0 -1 0 1 -0.21 -0.72 -0.07 2 0 "
         result="fbSourceGraphic"
         id="feColorMatrix9254" />
      <feColorMatrix
         result="fbSourceGraphicAlpha"
         in="fbSourceGraphic"
         values="0 0 0 -1 0 0 0 0 -1 0 0 0 0 -1 0 0 0 0 1 0"
         id="feColorMatrix9282" />
      <feColorMatrix
         id="feColorMatrix9284"
         values="0 0 0 -0.5 0.5 0 0 0 -0.5 0.5 0 0 0 -0.5 0.5 0 0 0 1 0"
         in="fbSourceGraphic"
         result="fbSourceGraphic" />
      <feColorMatrix
         result="fbSourceGraphicAlpha"
         in="fbSourceGraphic"
         values="0 0 0 -1 0 0 0 0 -1 0 0 0 0 -1 0 0 0 0 1 0"
         id="feColorMatrix9311" />
      <feColorMatrix
         id="feColorMatrix9313"
         type="hueRotate"
         values="180"
         result="color1"
         in="fbSourceGraphic" />
      <feColorMatrix
         id="feColorMatrix9315"
         values="-1 0 0 0 1 0 -1 0 0 1 0 0 -1 0 1 -0.21 -0.72 -0.07 2 0 "
         result="color2" />
    </filter>
  </defs>
  <sodipodi:namedview
     pagecolor="#ffffff"
     bordercolor="#666666"
     borderopacity="1"
     objecttolerance="10"
     gridtolerance="10"
     guidetolerance="10"
     inkscape:pageopacity="0"
     inkscape:pageshadow="2"
     inkscape:window-width="1916"
     inkscape:window-height="1076"
     id="namedview9240"
     showgrid="false"
     inkscape:zoom="6.180637"
     inkscape:cx="71.38913"
     inkscape:cy="52.686245"
     inkscape:window-x="1680"
     inkscape:window-y="0"
     inkscape:window-maximized="0"
     inkscape:current-layer="svg9238" />
  <path
     d="M4.18123 43.3765C2.46673 45.7718 3.01842 49.1036 5.41395 50.8181C6.87337 51.8628 8.76031 52.1033 10.4353 51.4585C11.0928 52.1732 11.7593 52.888 12.4687 53.6027C2.29429 63.904 -2.28188 73.973 1.43302 80.4058C5.14793 86.8385 16.1568 87.9106 30.1641 84.2493C34.0041 98.2155 40.435 107.212 47.8648 107.212C55.2947 107.212 61.731 98.2084 65.5549 84.2386C67.8778 84.8497 70.1704 85.3697 72.345 85.7235C83.4825 87.5336 91.2661 85.6431 94.2806 80.4093C96.709 76.2013 95.728 70.4726 91.5306 63.8093C93.2393 61.4158 92.6842 58.0904 90.291 56.3815C88.8324 55.3402 86.9482 55.1023 85.2766 55.7487C84.6208 55.034 83.9561 54.3193 83.2485 53.6045C93.43 43.305 98.0044 33.236 94.2895 26.8032C91.9666 22.7953 86.8329 20.8655 79.8981 20.8655C75.0481 20.9584 70.2291 21.6615 65.5549 22.9579C61.7256 8.99707 55.2947 0.000180721 47.8648 0.000180721C40.435 0.000180721 33.9987 9.00422 30.1659 22.974C27.843 22.3629 25.5504 21.8429 23.3758 21.4891C20.8581 21.0625 18.31 20.8389 15.7566 20.8208C8.69665 20.8208 3.72558 22.865 1.46161 26.8032C-0.977466 31.006 -4.86489e-05 36.7239 4.18123 43.3765ZM8.5537 48.2457C7.5669 48.2457 6.76683 47.4456 6.76683 46.4588C6.76683 45.472 7.5669 44.6719 8.5537 44.6719C9.5405 44.6719 10.3406 45.472 10.3406 46.4588C10.3406 47.4456 9.5405 48.2457 8.5537 48.2457ZM30.7877 68.2586C32.8551 69.6059 34.9654 70.9264 37.1436 72.1897C39.3218 73.4531 41.5268 74.6056 43.7211 75.7188C40.1313 77.3018 36.4552 78.6817 32.7104 79.8518C31.8518 76.0266 31.2101 72.156 30.7877 68.2586ZM47.8648 103.639C42.5686 103.639 37.0471 96.057 33.5699 83.288C38.4641 81.7727 43.2482 79.922 47.8881 77.7487C52.5136 79.9124 57.2821 81.7566 62.1598 83.2683C58.6879 96.0498 53.1629 103.639 47.8648 103.639ZM63.03 79.8C59.2955 78.6457 55.6284 77.2832 52.0461 75.7188C54.2118 74.6181 56.3918 73.4376 58.5861 72.1772C60.7803 70.9168 62.8985 69.6155 64.9402 68.2729C64.5196 72.148 63.8819 75.9964 63.03 79.8ZM86.0592 59.3654C86.3739 59.1072 86.7688 58.9662 87.176 58.9669C88.1628 58.9669 88.9629 59.767 88.9629 60.7538C88.9667 61.3142 88.7006 61.842 88.2481 62.1725C88.232 62.1851 88.2106 62.1868 88.1927 62.1994C87.9015 62.4234 87.5434 62.5435 87.176 62.5406C86.1892 62.5362 85.3927 61.7325 85.3972 60.7457C85.3996 60.2097 85.6426 59.7029 86.0592 59.3654ZM84.455 65.3733C85.2797 65.8586 86.2191 66.1146 87.176 66.1144C87.6783 66.1146 88.1782 66.0442 88.6609 65.9053C91.9684 71.2266 92.869 75.7081 91.1839 78.6225C88.9968 82.4214 82.3443 83.7222 72.9346 82.1962C70.8494 81.8585 68.6658 81.3617 66.434 80.7667C67.5582 75.7974 68.339 70.7567 68.7712 65.6802C72.9552 62.7629 76.9339 59.5617 80.6789 56.099C81.3186 56.744 81.9601 57.3891 82.5552 58.0342C81.0531 60.5854 81.9036 63.8712 84.455 65.3733ZM69.1072 46.1908C72.2469 48.5023 75.2569 50.9852 78.1237 53.6277C75.2589 56.2678 72.248 58.7447 69.1054 61.0468C69.2401 58.6178 69.3073 56.1376 69.3073 53.6063C69.3073 51.0832 69.2358 48.6031 69.1072 46.1908ZM91.1947 28.5901C93.841 33.1752 90.0243 41.745 80.7147 51.1368C76.9562 47.6772 72.9684 44.4756 68.7784 41.5539C68.3433 36.4492 67.5557 31.381 66.4215 26.3851C79.2191 23.0133 88.5465 24.005 91.1947 28.5901ZM64.942 38.954C62.8746 37.6049 60.7643 36.2844 58.5861 35.0228C56.4079 33.7613 54.2029 32.607 52.0086 31.4938C55.5984 29.9108 59.2745 28.5309 63.0193 27.3607C63.8777 31.186 64.5196 35.0566 64.942 38.954ZM47.8648 3.57392C53.1611 3.57392 58.6843 11.1574 62.1598 23.9282C57.2662 25.4421 52.4832 27.2928 47.8452 29.4675C43.2183 27.3029 38.4487 25.4575 33.5699 23.9442C37.0418 11.1628 42.5668 3.57392 47.8648 3.57392ZM32.6997 27.4126C36.4345 28.5667 40.1013 29.9291 43.6836 31.4938C41.5179 32.5945 39.3379 33.7749 37.1436 35.0353C34.9493 36.2958 32.8312 37.597 30.7895 38.9397C31.2101 35.0646 31.8478 31.2161 32.6997 27.4126ZM30.366 43.5123C33.0338 41.6914 35.8928 39.8885 38.9305 38.132C41.9682 36.3773 44.9462 34.8013 47.8648 33.4039C50.8382 34.8334 53.8312 36.4094 56.7992 38.1248C59.7672 39.8402 62.6244 41.6539 65.3655 43.5283C65.6031 46.7447 65.7336 50.104 65.7336 53.6063C65.7336 57.1086 65.6031 60.4804 65.3637 63.7003C62.6959 65.5211 59.8369 67.3241 56.7992 69.0806C53.7615 70.8371 50.7792 72.4042 47.8648 73.8086C44.8915 72.3792 41.8985 70.8031 38.9305 69.0877C35.9625 67.3723 33.1035 65.5622 30.3642 63.6878C30.1266 60.4714 29.9961 57.1086 29.9961 53.6063C29.9961 50.104 30.1266 46.7322 30.366 43.5123ZM4.53503 78.6225C1.88868 74.0374 5.70543 65.4675 15.015 56.0757C18.7735 59.5354 22.7613 62.737 26.9513 65.6587C27.3864 70.7632 28.174 75.8316 29.3082 80.8275C16.5106 84.1993 7.18317 83.2076 4.53503 78.6225ZM26.6225 61.0254C23.4792 58.7156 20.465 56.2354 17.5935 53.5956C20.4621 50.9517 23.4772 48.471 26.6243 46.1658C26.4896 48.5934 26.4224 51.0736 26.4224 53.6063C26.4224 56.1311 26.4939 58.6095 26.6225 61.0254ZM4.54575 28.5901C6.73466 24.793 13.3836 23.4922 22.7951 25.0164C24.8803 25.3541 27.0639 25.8508 29.2957 26.4459C28.1715 31.4151 27.3907 36.4559 26.9585 41.5324C22.7729 44.451 18.7931 47.654 15.0472 51.119C14.3932 50.4596 13.7803 49.802 13.1728 49.1427C13.6545 48.3301 13.9105 47.4034 13.9143 46.4588C13.9143 43.4982 11.5143 41.0982 8.5537 41.0982C8.06186 41.1051 7.5736 41.1811 7.10276 41.3233C3.79347 36.0003 2.86073 31.5045 4.54575 28.5901Z"
     fill="white"
     id="path9234"
     style="filter:url(#filter9250)" />
  <circle
     cx="47.3756"
     cy="53.4033"
     r="8.63229"
     fill="#26B5B2"
     id="circle9236"
     style="filter:url(#filter9256)" />
</svg>
